<?xml version="1.0" encoding="UTF-8" standalone="no"?>
<!DOCTYPE svg PUBLIC "-//W3C//DTD SVG 1.1//EN" "http://www.w3.org/Graphics/SVG/1.1/DTD/svg11.dtd">
<svg width="100%" height="100%" viewBox="0 0 202 202" version="1.1" xmlns="http://www.w3.org/2000/svg" xmlns:xlink="http://www.w3.org/1999/xlink" xml:space="preserve" xmlns:serif="http://www.serif.com/" style="fill-rule:evenodd;clip-rule:evenodd;stroke-linejoin:round;stroke-miterlimit:2;">
    <g transform="matrix(1,0,0,1,-28.8949,-28.8949)">
        <path d="M230.3,103.8C230.236,110.72 225.633,116.829 219,118.8L142.4,142.4L118.8,219C116.85,225.633 110.713,230.215 103.8,230.2L103.5,230.2C96.677,230.248 90.559,225.872 88.4,219.4L29.8,50.2C29.201,48.495 28.895,46.702 28.895,44.895C28.895,36.118 36.118,28.895 44.895,28.895C46.702,28.895 48.495,29.201 50.2,29.8L219.5,88.4C226.058,90.619 230.448,96.878 230.3,103.8Z" style="fill:white;fill-rule:nonzero;"/>
    </g>
</svg>
